<?xml version="1.0" encoding="utf-8"?>
<!-- Generator: Adobe Illustrator 17.0.0, SVG Export Plug-In . SVG Version: 6.00 Build 0)  -->
<!DOCTYPE svg PUBLIC "-//W3C//DTD SVG 1.1//EN" "http://www.w3.org/Graphics/SVG/1.1/DTD/svg11.dtd">
<svg version="1.1" id="Layer_1" xmlns="http://www.w3.org/2000/svg" xmlns:xlink="http://www.w3.org/1999/xlink" x="0px" y="0px"
	 width="197px" height="109px" viewBox="0 0 197 109" enable-background="new 0 0 197 109" xml:space="preserve">
<g>
	<path fill="#1661AB" d="M175.16,27.516h5.227c1.419-0.035,2.662,0.465,3.728,1.499l12.722,12.722l-3.113,4.228h-20.601
		c-2.629,0.069-4.999-1.264-7.11-3.997c-0.663,2.581-2.278,3.914-4.847,3.997H59.629v-6.034h99.082
		c2.52,0.053,3.237-0.908,2.152-2.883l-2.421-4.727l4.843-3.228c3.031,7.329,6.606,10.942,10.723,10.838h13.221l-5.265-5.265
		c-0.898-0.998-2.103-1.498-3.613-1.499h-3.19V27.516z"/>
	<path fill="#1661AB" d="M148.622,17.12c1.069,2.493,3.279,4.515,7.072,4.42h13.221l-5.265-5.265
		c-0.898-0.998-2.103-1.498-3.613-1.499h-3.19v-5.65h5.227c1.418-0.035,2.662,0.465,3.728,1.499l12.722,12.722l-3.113,4.228H154.81
		c-2.642-0.133-4.545-1.127-5.707-2.979c-1.96,5.073-6.149,8.11-13.952,12.952l-1.422-5.65c3.131-1.991,5.752-3.92,7.898-5.976
		c2.114-2.114,2.71-3.939,1.191-7.399l-2.364-4.747l4.939-3.055L148.622,17.12z"/>
	<path fill="#1661AB" d="M133.69,13.315l-4.919,3.228l2.421,4.343c1.001,1.758,0.713,2.983-0.884,3.113h-4.689
		c-2.498-0.184-4.472-1.567-5.919-4.151L112.86,6.243l-4.804,3.036l5.573,10.992c1.549,2.666,1.061,3.871-1.845,3.843h-9.032v5.919
		h11.107c2.204,0.049,4.036-1.129,5.496-3.459c1.888,2.188,3.95,3.341,6.188,3.459h6.803c2.916-0.245,4.633-2.167,5.15-5.765
		c0.103-0.638,0.103-1.291,0-1.96C137.064,19.666,135.796,16.668,133.69,13.315z"/>
	<path fill="#1661AB" d="M70.486,8.376c4.381,1.249,7.6,1.043,7.879-1.019c0.154-1.345-1.134-2.614-3.421-2.671
		C72.823,4.694,71.293,6.089,70.486,8.376z M83.458,12.758c-0.404-0.778-0.737-1.636-0.999-2.575
		c-1.572,2.892-3.997,4.266-7.533,4.42v4.708C74.966,22.437,76.164,24,78.519,24h7.072c2.123-0.01,2.732-1.048,1.826-3.113
		L83.458,12.758z M102.598,5.398L89.684,8.818c-1.393,0.244-1.739,1.014-1.038,2.306c2.989,5.352,4.616,8.605,4.841,9.763
		c1.05,5.414-2.108,8.768-8.108,9.146h-9.608c-3.772-0.225-5.898-3.299-6.38-9.224v-6.803c-3.28-0.58-4.895-0.094-4.843,1.46v14.566
		h-4.92V15.775c0.151-4.959,2.444-7.431,6.88-7.418c1.276-5.282,4.054-8.341,8.301-8.029c5.054,0.371,7.758,2.52,8.111,6.453
		c0.538-0.755,1.537-1.307,2.998-1.653l14.566-4.343L102.598,5.398z"/>
	<g>
		<circle fill="#FCBA30" cx="182.655" cy="50.5" r="3.536"/>
		<path fill="#F8962D" d="M182.655,50.5"/>
	</g>
	<g>
		<circle fill="#FCBA30" cx="159.076" cy="3.606" r="3.536"/>
		<path fill="#FCBA30" d="M159.076,3.606"/>
	</g>
	<g>
		<circle fill="#FCBA30" cx="97.774" cy="27.074" r="3.536"/>
		<path fill="#8E7FBB" d="M97.774,27.074"/>
	</g>
	<g>
		<circle fill="#FCBA30" cx="132.903" cy="35.006" r="3.536"/>
		<path fill="#F8962D" d="M132.903,35.006"/>
	</g>
	<g>
		<circle fill="#FCBA30" cx="124.909" cy="35.006" r="3.536"/>
		<path fill="#F8962D" d="M124.909,35.006"/>
	</g>
	<g>
		<path fill="#F8962D" d="M96.287,38.431"/>
	</g>
</g>
<g>
	<path fill="#1661AB" d="M0.714,22.282c-1.02-1.754-0.583-4.228,0.975-5.528v0C12.733,7.547,33.34,0.047,47.718,0h0.001
		c2.029-0.006,3.954,1.609,4.3,3.608v0.001c2.451,14.167-1.358,35.764-8.506,48.239l0,0.001c-1.008,1.76-3.369,2.62-5.274,1.919l0,0
		C24.743,48.806,7.944,34.71,0.714,22.282L0.714,22.282z"/>
	<g>
		<circle fill="#FCBA30" cx="43.238" cy="9.684" r="5.696"/>
		<path fill="#F8962D" d="M43.239,9.684"/>
	</g>
	<g>
		<circle fill="#FCBA30" cx="23.208" cy="33.556" r="5.696"/>
		<path fill="#F8962D" d="M23.208,33.556"/>
	</g>
	<path fill="none" stroke="#FAB82D" stroke-width="3.5" stroke-miterlimit="3.8637" d="M34.655,23.37l2.931-1.067l5.209-1.896
		c2.002-0.614,3.54,0.768,3.314,2.781c-0.217,3.661-0.859,7.301-1.926,10.919c-0.32,1.584-2.235,3.016-4.065,1.48l-4.246-3.564
		L22.54,20.836l-4.248-3.563c-1.83-1.536-0.753-3.67,0.752-4.26c3.378-1.679,6.851-2.943,10.419-3.793
		c1.944-0.572,3.572,0.703,3.314,2.781l-0.962,5.458l-0.541,3.072"/>
</g>
<g>
	<path fill="#FFFFFF" d="M175.16,82.481h5.227c1.419-0.035,2.662,0.465,3.728,1.499l12.722,12.722l-3.113,4.228h-20.601
		c-2.629,0.069-4.999-1.264-7.11-3.997c-0.663,2.581-2.278,3.914-4.847,3.997H59.629v-6.034h99.082
		c2.52,0.053,3.237-0.908,2.152-2.883l-2.421-4.727l4.843-3.228c3.031,7.329,6.606,10.942,10.723,10.838h13.221l-5.265-5.265
		c-0.898-0.998-2.103-1.498-3.613-1.499h-3.19V82.481z"/>
	<path fill="#FFFFFF" d="M148.622,72.084c1.069,2.493,3.279,4.515,7.072,4.42h13.221l-5.265-5.265
		c-0.898-0.998-2.103-1.498-3.613-1.499h-3.19v-5.65h5.227c1.418-0.035,2.662,0.465,3.728,1.499l12.722,12.722l-3.113,4.228H154.81
		c-2.642-0.133-4.545-1.127-5.707-2.979c-1.96,5.073-6.149,8.11-13.952,12.952l-1.422-5.65c3.131-1.991,5.752-3.92,7.898-5.976
		c2.114-2.114,2.71-3.939,1.191-7.399l-2.364-4.747l4.939-3.055L148.622,72.084z"/>
	<path fill="#FFFFFF" d="M133.69,68.279l-4.919,3.228l2.421,4.343c1.001,1.758,0.713,2.983-0.884,3.113h-4.689
		c-2.498-0.184-4.472-1.567-5.919-4.151l-6.841-13.606l-4.804,3.036l5.573,10.992c1.549,2.666,1.061,3.871-1.845,3.843h-9.032v5.919
		h11.107c2.204,0.049,4.036-1.129,5.496-3.459c1.888,2.188,3.95,3.341,6.188,3.459h6.803c2.916-0.245,4.633-2.167,5.15-5.765
		c0.103-0.638,0.103-1.291,0-1.96C137.064,74.63,135.796,71.633,133.69,68.279z"/>
	<path fill="#FFFFFF" d="M70.486,63.34c4.381,1.249,7.6,1.043,7.879-1.019c0.154-1.345-1.134-2.614-3.421-2.671
		C72.823,59.658,71.293,61.054,70.486,63.34z M83.458,67.722c-0.404-0.778-0.737-1.636-0.999-2.575
		c-1.572,2.892-3.997,4.266-7.533,4.42v4.708c0.041,3.126,1.238,4.689,3.594,4.689h7.072c2.123-0.01,2.732-1.048,1.826-3.113
		L83.458,67.722z M102.598,60.362l-12.914,3.421c-1.393,0.244-1.739,1.014-1.038,2.306c2.989,5.352,4.616,8.605,4.841,9.763
		c1.05,5.414-2.108,8.768-8.108,9.146h-9.608c-3.772-0.225-5.898-3.299-6.38-9.224v-6.803c-3.28-0.58-4.895-0.094-4.843,1.46v14.566
		h-4.92V70.739c0.151-4.959,2.444-7.431,6.88-7.418c1.276-5.282,4.054-8.341,8.301-8.029c5.054,0.371,7.758,2.52,8.111,6.453
		c0.538-0.755,1.537-1.307,2.998-1.653l14.566-4.343L102.598,60.362z"/>
	<g>
		<circle fill="#FCBA30" cx="182.655" cy="105.464" r="3.536"/>
		<path fill="#F8962D" d="M182.655,105.464"/>
	</g>
	<g>
		<circle fill="#FCBA30" cx="159.076" cy="58.57" r="3.536"/>
		<path fill="#FCBA30" d="M159.076,58.57"/>
	</g>
	<g>
		<circle fill="#FCBA30" cx="97.774" cy="82.039" r="3.536"/>
		<path fill="#8E7FBB" d="M97.774,82.039"/>
	</g>
	<g>
		<circle fill="#FCBA30" cx="132.903" cy="89.97" r="3.536"/>
		<path fill="#F8962D" d="M132.903,89.97"/>
	</g>
	<g>
		<circle fill="#FCBA30" cx="124.909" cy="89.97" r="3.536"/>
		<path fill="#F8962D" d="M124.909,89.97"/>
	</g>
	<g>
		<path fill="#F8962D" d="M96.287,93.395"/>
	</g>
</g>
<g>
	<path fill="#FFFFFF" d="M0.714,77.246c-1.02-1.754-0.583-4.228,0.975-5.528v0c11.044-9.206,31.651-16.707,46.029-16.754h0.001
		c2.029-0.006,3.954,1.609,4.3,3.608v0.001c2.451,14.167-1.358,35.764-8.506,48.239l0,0.001c-1.008,1.76-3.369,2.62-5.274,1.919l0,0
		C24.743,103.771,7.944,89.674,0.714,77.246L0.714,77.246z"/>
	<g>
		<circle fill="#FCBA30" cx="43.238" cy="64.648" r="5.696"/>
		<path fill="#F8962D" d="M43.239,64.648"/>
	</g>
	<g>
		<circle fill="#FCBA30" cx="23.208" cy="88.52" r="5.696"/>
		<path fill="#F8962D" d="M23.208,88.52"/>
	</g>
	<path fill="none" stroke="#FAB82D" stroke-width="3.5" stroke-miterlimit="3.8637" d="M34.655,78.334l2.931-1.067l5.209-1.896
		c2.002-0.614,3.54,0.768,3.314,2.781c-0.217,3.661-0.859,7.301-1.926,10.919c-0.32,1.584-2.235,3.016-4.065,1.48l-4.246-3.564
		L22.54,75.8l-4.248-3.563c-1.83-1.536-0.753-3.67,0.752-4.26c3.378-1.679,6.851-2.943,10.419-3.793
		c1.944-0.572,3.572,0.703,3.314,2.781l-0.962,5.458l-0.541,3.072"/>
</g>
</svg>
