<?xml version="1.0" encoding="utf-8"?>
<!-- Generator: Adobe Illustrator 17.0.0, SVG Export Plug-In . SVG Version: 6.00 Build 0)  -->
<!DOCTYPE svg PUBLIC "-//W3C//DTD SVG 1.1//EN" "http://www.w3.org/Graphics/SVG/1.1/DTD/svg11.dtd">
<svg version="1.1" id="Layer_1" xmlns="http://www.w3.org/2000/svg" xmlns:xlink="http://www.w3.org/1999/xlink" x="0px" y="0px"
	 width="18px" height="18px" viewBox="0 0 18 18" enable-background="new 0 0 18 18" xml:space="preserve">
<path id="path12423" fill="#125FAD" d="M2.027,2.024c-2.699,2.699-2.705,7.119-0.007,9.817c2.286,2.286,5.812,2.635,8.476,1.045
	l4.761,4.629c0.655,0.636,1.689,0.613,2.315-0.053c0.626-0.665,0.609-1.711-0.046-2.347l-4.688-4.543
	c1.644-2.672,1.31-6.239-0.999-8.549C9.14-0.675,4.726-0.675,2.027,2.024L2.027,2.024z M4.006,4.003
	c1.628-1.628,4.225-1.628,5.853,0s1.628,4.225,0,5.853s-4.225,1.628-5.853,0C2.379,8.228,2.379,5.631,4.006,4.003z"/>
</svg>
